<?xml version="1.0" encoding="UTF-8" standalone="no"?>
<!-- Created with Inkscape (http://www.inkscape.org/) -->

<svg
   xmlns:dc="http://purl.org/dc/elements/1.1/"
   xmlns:cc="http://creativecommons.org/ns#"
   xmlns:rdf="http://www.w3.org/1999/02/22-rdf-syntax-ns#"
   xmlns:svg="http://www.w3.org/2000/svg"
   xmlns="http://www.w3.org/2000/svg"
   xmlns:xlink="http://www.w3.org/1999/xlink"
   xmlns:sodipodi="http://sodipodi.sourceforge.net/DTD/sodipodi-0.dtd"
   xmlns:inkscape="http://www.inkscape.org/namespaces/inkscape"
   width="744.09448"
   height="1052.3622"
   id="svg2"
   version="1.1"
   inkscape:version="0.47 r22583"
   sodipodi:docname="robotsv2.svg"
   style="display:inline"
   inkscape:export-filename="/home/esnyder/robotsv2.jpg.png"
   inkscape:export-xdpi="149.33784"
   inkscape:export-ydpi="149.33784">
  <defs
     id="defs4">
    <inkscape:perspective
       sodipodi:type="inkscape:persp3d"
       inkscape:vp_x="0 : 526.18109 : 1"
       inkscape:vp_y="0 : 1000 : 0"
       inkscape:vp_z="744.09448 : 526.18109 : 1"
       inkscape:persp3d-origin="372.04724 : 350.78739 : 1"
       id="perspective10" />
    <inkscape:perspective
       id="perspective2884"
       inkscape:persp3d-origin="0.5 : 0.33333333 : 1"
       inkscape:vp_z="1 : 0.5 : 1"
       inkscape:vp_y="0 : 1000 : 0"
       inkscape:vp_x="0 : 0.5 : 1"
       sodipodi:type="inkscape:persp3d" />
    <inkscape:perspective
       id="perspective4129"
       inkscape:persp3d-origin="0.5 : 0.33333333 : 1"
       inkscape:vp_z="1 : 0.5 : 1"
       inkscape:vp_y="0 : 1000 : 0"
       inkscape:vp_x="0 : 0.5 : 1"
       sodipodi:type="inkscape:persp3d" />
    <inkscape:perspective
       id="perspective5626"
       inkscape:persp3d-origin="0.5 : 0.33333333 : 1"
       inkscape:vp_z="1 : 0.5 : 1"
       inkscape:vp_y="0 : 1000 : 0"
       inkscape:vp_x="0 : 0.5 : 1"
       sodipodi:type="inkscape:persp3d" />
    <inkscape:perspective
       id="perspective5662"
       inkscape:persp3d-origin="0.5 : 0.33333333 : 1"
       inkscape:vp_z="1 : 0.5 : 1"
       inkscape:vp_y="0 : 1000 : 0"
       inkscape:vp_x="0 : 0.5 : 1"
       sodipodi:type="inkscape:persp3d" />
    <inkscape:perspective
       id="perspective5717"
       inkscape:persp3d-origin="0.5 : 0.33333333 : 1"
       inkscape:vp_z="1 : 0.5 : 1"
       inkscape:vp_y="0 : 1000 : 0"
       inkscape:vp_x="0 : 0.5 : 1"
       sodipodi:type="inkscape:persp3d" />
    <inkscape:perspective
       id="perspective5739"
       inkscape:persp3d-origin="0.5 : 0.33333333 : 1"
       inkscape:vp_z="1 : 0.5 : 1"
       inkscape:vp_y="0 : 1000 : 0"
       inkscape:vp_x="0 : 0.5 : 1"
       sodipodi:type="inkscape:persp3d" />
    <inkscape:perspective
       id="perspective5763"
       inkscape:persp3d-origin="0.5 : 0.33333333 : 1"
       inkscape:vp_z="1 : 0.5 : 1"
       inkscape:vp_y="0 : 1000 : 0"
       inkscape:vp_x="0 : 0.5 : 1"
       sodipodi:type="inkscape:persp3d" />
    <inkscape:perspective
       id="perspective5788"
       inkscape:persp3d-origin="0.5 : 0.33333333 : 1"
       inkscape:vp_z="1 : 0.5 : 1"
       inkscape:vp_y="0 : 1000 : 0"
       inkscape:vp_x="0 : 0.5 : 1"
       sodipodi:type="inkscape:persp3d" />
  </defs>
  <sodipodi:namedview
     id="base"
     pagecolor="#ffffff"
     bordercolor="#666666"
     borderopacity="1.0"
     inkscape:pageopacity="0.0"
     inkscape:pageshadow="2"
     inkscape:zoom="0.98994949"
     inkscape:cx="393.5589"
     inkscape:cy="480.94528"
     inkscape:document-units="px"
     inkscape:current-layer="layer2"
     showgrid="false"
     inkscape:window-width="1607"
     inkscape:window-height="1093"
     inkscape:window-x="0"
     inkscape:window-y="26"
     inkscape:window-maximized="0"
     showguides="true"
     inkscape:guide-bbox="true" />
  <metadata
     id="metadata7">
    <rdf:RDF>
      <cc:Work
         rdf:about="">
        <dc:format>image/svg+xml</dc:format>
        <dc:type
           rdf:resource="http://purl.org/dc/dcmitype/StillImage" />
        <dc:title></dc:title>
      </cc:Work>
    </rdf:RDF>
  </metadata>
  <g
     inkscape:label="robothand"
     inkscape:groupmode="layer"
     id="layer1"
     style="opacity:0.51552794;display:none">
    <image
       y="13.885684"
       x="-1040.0249"
       id="image2886"
       height="423"
       width="620"
       xlink:href="file:///home/esnyder/RHL/robotsimple.png"
       transform="matrix(-0.37748745,-0.9260147,0.9260147,-0.37748745,0,0)" />
  </g>
  <g
     inkscape:groupmode="layer"
     id="layer3"
     inkscape:label="humanhand"
     style="display:none">
    <image
       y="339.32288"
       x="-0.64859402"
       id="image4131"
       height="547.32227"
       width="547.32227"
       xlink:href="file:///home/esnyder/RHL/existinglogos/150px-Makerslocal256_logo.png"
       transform="matrix(-0.62968416,0.77685124,0.77685124,0.62968416,0,0)"
       style="opacity:0.55938697;fill:#000000;fill-opacity:1" />
  </g>
  <g
     inkscape:groupmode="layer"
     id="layer2"
     inkscape:label="trace"
     style="display:inline">
    <path
       style="fill:#000000;fill-opacity:1;stroke:#000000;stroke-width:1px;stroke-linecap:butt;stroke-linejoin:miter;stroke-opacity:1"
       d="m 438.13664,499.80147 16.06015,129.69835 95.20445,17.91112 -4.75036,-25.90968 -48.62166,-30.62637 10.63779,-46.3747 -25.71844,-53.49318 -42.81193,8.79446 z"
       id="path2893" />
    <path
       style="fill:#000000;fill-opacity:1;stroke:#000000;stroke-width:1px;stroke-linecap:butt;stroke-linejoin:miter;stroke-opacity:1"
       d="m 525.25776,463.74295 75.10449,62.08232 -3.46391,94.5248 -27.37542,-2.38496 -9.47409,-57.25914 -46.80281,-18.98733 -25.59022,-60.52691 37.60196,-17.44878 z"
       id="path2895" />
    <path
       style="fill:#000000;fill-opacity:1;stroke:#000000;stroke-width:1px;stroke-linecap:butt;stroke-linejoin:miter;stroke-opacity:1"
       d="m 421.19093,474.39486 -1.31217,-54.54102 -67.84721,-1.0352 c 5.4913,7.14725 10.60973,26.42537 5.63094,47.72306 l 63.52844,7.85316 z"
       id="path2897"
       sodipodi:nodetypes="ccccc" />
    <path
       style="fill:#000000;fill-opacity:1;stroke:#000000;stroke-width:0.86024719;stroke-opacity:1"
       d="m 463.30155,412.57344 c -4.59493,0.016 -9.24467,0.93894 -13.75,2.84375 -18.02131,7.61925 -26.54244,28.25411 -19,46.09375 7.54244,17.83964 28.29119,26.11925 46.3125,18.5 18.02131,-7.61925 26.51119,-28.25411 18.96875,-46.09375 -5.65683,-13.37973 -18.74647,-21.39166 -32.53125,-21.34375 z m -0.9375,13.125 17.90625,9.84375 0.4375,20.46875 -17.5,10.59375 -17.9375,-9.875 -0.40625,-20.4375 17.5,-10.59375 z"
       id="path2903" />
    <path
       style="fill:#000000;fill-opacity:1;stroke:#000000;stroke-width:1px;stroke-linecap:butt;stroke-linejoin:miter;stroke-opacity:1"
       d="m 374.353,544.47002 c -37.56878,-7.14751 -56.78245,-11.08813 -71.7409,-3.66711 -0.68417,17.83688 -12.58978,51.9337 -10.37323,59.77037 5.70386,13.49099 19.24786,10.50652 31.32786,-5.01969 0,0 1.59577,-14.38375 -0.81746,-22.68563 4.09619,3.20344 11.46766,1.18357 11.46766,1.18357 0,0 3.1143,68.32541 7.44137,78.55995 -2.0045,3.04095 14.55815,20.16639 14.55815,20.16639 0,0 -10.37475,-7.67764 -19.56939,-12.56404 l 2.3533,34.10028 c 6.16139,8.0881 16.82837,8.98357 40.30774,17.48571 11.73968,4.25107 33.50099,14.57068 59.50375,28.64187 26.00275,14.07119 78.21776,64.59765 106.92322,83.85503 0,0 5.08233,-3.28692 6.94478,-8.08906 -17.46103,-14.59172 -20.26494,-30.32108 -22.96641,-39.92524 -0.72338,-13.70419 -2.78695,-34.14642 9.72505,-38.98503 -8.57229,-8.15264 -7.86702,-15.41094 -11.38119,-46.75097 -26.76904,-7.32361 -126.01282,-58.53039 -126.01282,-58.53039 L 374.353,544.47002 z"
       id="path4135"
       sodipodi:nodetypes="ccccccccccssccccccc" />
    <path
       style="fill:#000000;fill-opacity:1;stroke:#000000;stroke-width:1px;stroke-linecap:butt;stroke-linejoin:miter;stroke-opacity:1"
       d="m 257.94882,573.94357 c -6.35039,-3.3471 -5.11035,-26.35427 -0.85166,-29.25153 l 40.05731,0.0634 -5.91093,28.82052 -33.29472,0.36762 z"
       id="path4137"
       sodipodi:nodetypes="ccccc" />
    <path
       style="fill:#000000;fill-opacity:1;stroke:#000000;stroke-width:1px;stroke-linecap:butt;stroke-linejoin:miter;stroke-opacity:1"
       d="m 255.80065,579.2387 c -6.65656,5.00779 -7.4314,27.81827 -2.35178,33.34774 l 39.46726,-1.33223 2.4697,-3.23762 -7.92388,-7.06876 3.35057,-20.6093 -35.01187,-1.09983 z"
       id="path4139"
       sodipodi:nodetypes="ccccccc" />
    <path
       style="fill:#000000;fill-opacity:1;stroke:#000000;stroke-width:1px;stroke-linecap:butt;stroke-linejoin:miter;stroke-opacity:1"
       d="m 316.54753,620.45578 -61.59702,-3.0206 c -5.99466,5.27631 -1.65224,25.92326 6.66501,33.92243 l 55.19361,-3.04593 c 4.38355,-1.30496 7.80595,-23.04135 -0.2616,-27.8559 z"
       id="path4141"
       sodipodi:nodetypes="ccccc" />
    <path
       style="fill:#000000;fill-opacity:1;stroke:#000000;stroke-width:1px;stroke-linecap:butt;stroke-linejoin:miter;stroke-opacity:1"
       d="m 313.99907,653.3383 c 4.90176,1.21776 9.74705,13.97501 2.89381,18.51759 l -48.59352,9.57764 c -4.90176,-1.21776 -8.9945,-18.6801 -7.31154,-23.77854 l 53.01125,-4.31669 z"
       id="path4143"
       sodipodi:nodetypes="ccccc" />
    <path
       style="fill:#000000;fill-opacity:1;stroke:#000000;stroke-width:1px;stroke-linecap:butt;stroke-linejoin:miter;stroke-opacity:1"
       d="m 297.06575,468.02211 -25.54525,-11.13422 -4.36721,-29.1361 22.50181,-17.46483 26.69885,12.56576 3.63349,29.99468 -22.92169,15.17471 z"
       id="path4145"
       sodipodi:nodetypes="ccccccc" />
    <path
       style="fill:#000000;fill-opacity:1;stroke:#000000;stroke-width:1px;stroke-linecap:butt;stroke-linejoin:miter;stroke-opacity:1"
       d="m 321.01121,399.49751 7.37472,58.29871 -29.49874,24.26161 -36.39463,-16.69194 -6.50845,-52.35877 c -31.33133,19.2786 -9.67888,73.73426 -9.67888,73.73426 l 23.61085,20.17751 1.12786,33.79585 6.40514,-1.06295 -0.28638,-36.34507 -25.90097,-19.75764 c 0,0 -10.05917,-17.95578 -8.72847,-45.93653 0,0 5.57652,-14.69588 10.89048,-16.39421 l 4.81014,47.04482 41.94885,20.10146 33.96354,-28.61691 -7.59965,-52.99416 c 0,0 9.5786,7.74006 14.1836,15.38946 16.62584,51.64559 -19.95702,73.41867 -19.95702,73.41867 l -0.54569,36.97104 8.71235,1.80013 -1.38697,-35.0572 c 36.23828,-39.44919 20.84979,-66.11905 18.03551,-80.55754 -14.03994,-17.64366 -24.57719,-19.2206 -24.57719,-19.2206 z"
       id="path4174"
       sodipodi:nodetypes="cccccccccccccccccccccccc" />
    <path
       style="fill:#000000;fill-opacity:1;stroke:#000000;stroke-width:1px;stroke-linecap:butt;stroke-linejoin:miter;stroke-opacity:1"
       d="m 325.08471,670.2791 5.29724,-82.50284 0.75976,135.83068 c 42.43031,32.69742 31.8113,61.59939 31.49844,76.30628 -10.8282,19.77796 -20.94264,23.12736 -20.94264,23.12736 l -2.66701,-58.70276 -33.20143,-18.88032 -33.01812,22.64933 2.50844,52.70207 c -34.15812,-13.65792 -22.10135,-71.0067 -22.10135,-71.0067 l 19.82738,-23.90562 -0.48621,-42.4383 6.75537,-0.56637 1.48698,45.32922 -22.15556,23.88212 c 0,0 -6.85247,19.40723 -0.77341,46.75204 0,0 7.99909,13.53074 13.52472,14.29875 l -3.27646,-47.17645 37.91017,-26.9554 38.34305,22.41114 1.54149,53.51411 c 0,0 8.11965,-9.25902 11.35388,-17.58123 7.58249,-53.72329 -32.17542,-68.94437 -32.17542,-68.94437 l -4.43819,-54.35098"
       id="path4174-2"
       sodipodi:nodetypes="cccccccccccccccccccccccc" />
    <path
       style="fill:#000000;fill-opacity:1;stroke:#ffffff;stroke-width:2.55;stroke-linecap:butt;stroke-linejoin:miter;stroke-miterlimit:4;stroke-opacity:1;stroke-dasharray:none"
       d="m 505.10933,352.02748 c 2.04116,-5.64993 12.6518,-6.63496 17.23957,-1.45503 34.1876,283.55632 69.86432,347.33849 60.69964,373.06756 -14.80656,13.89527 -30.43847,8.59628 -34.54675,1.54727 -13.13263,-24.14821 1.47835,-85.97412 -43.39246,-373.1598 z"
       id="path5706"
       sodipodi:nodetypes="ccccc" />
    <path
       style="fill:#000000;stroke:#000000;stroke-width:1.15050327999999991px;stroke-linecap:butt;stroke-linejoin:miter;stroke-opacity:1;display:inline;fill-opacity:1"
       d="m 558.28064,741.27894 c 8.62436,5.87291 23.74484,-5.46185 23.74484,-5.46185 16.78182,8.20777 8.98992,39.13165 0.36678,57.70913 -11.49793,23.8631 -11.81105,37.98528 -32.16103,32.91 36.79729,-34.65021 -25.29812,-65.18937 8.04941,-85.15728 z"
       id="path5753"
       sodipodi:nodetypes="ccccc" />
  </g>
  <g
     inkscape:groupmode="layer"
     id="layer4"
     inkscape:label="guides"
     style="display:none">
    <rect
       style="fill:none;stroke:#e40000;stroke-width:0.69655704;stroke-miterlimit:4;stroke-opacity:0.60262008;stroke-dasharray:none;display:inline"
       id="rect5650"
       width="376.48975"
       height="532.37482"
       x="-820.88464"
       y="-128.26166"
       transform="matrix(-0.38941653,-0.92106176,0.999997,-0.0024513,0,0)" />
    <rect
       style="fill:none;stroke:#e40000;stroke-width:0.6307081;stroke-miterlimit:4;stroke-opacity:0.60262008;stroke-dasharray:none;display:inline"
       id="rect5652"
       width="576.96783"
       height="363.25491"
       x="-1054.45"
       y="289.22086"
       transform="matrix(0.00256173,-0.99999672,0.92954879,-0.36869913,0,0)" />
  </g>
</svg>
